HIERARCHY
ROOT Hips
{
    OFFSET 0.000000 0.000000 0.000000
    CHANNELS 6 Xposition Yposition Zposition Zrotation Xrotation Yrotation
    JOINT Chest
    {
        OFFSET -0.000000 0.078598 0.000000
        CHANNELS 3 Zrotation Xrotation Yrotation
        JOINT Chest2
        {
            OFFSET -0.000000 0.230468 0.000000
            CHANNELS 3 Zrotation Xrotation Yrotation
            JOINT Neck
            {
                OFFSET -0.000000 0.249638 0.000000
                CHANNELS 3 Zrotation Xrotation Yrotation
                JOINT Head
                {
                    OFFSET -0.000000 0.103998 0.019170
                    CHANNELS 3 Zrotation Xrotation Yrotation
                    End Site
                    {
                        OFFSET -0.000000 0.191701 0.000000
                    }
                }
            }
            JOINT LeftCollar
            {
                OFFSET 0.038274 0.205938 -0.001496
                CHANNELS 3 Zrotation Xrotation Yrotation
                JOINT LeftShoulder
                {
                    OFFSET 0.132388 0.000000 0.000000
                    CHANNELS 3 Zrotation Xrotation Yrotation
                    JOINT LeftElbow
                    {
                        OFFSET 0.250301 0.000000 0.000000
                        CHANNELS 3 Zrotation Xrotation Yrotation
                        JOINT LeftWrist
                        {
                            OFFSET 0.285291 0.000000 0.000000
                            CHANNELS 3 Zrotation Xrotation Yrotation
                            End Site
                            {
                                OFFSET 0.000000 -0.143776 0.000000
                            }
                        }
                    }
                }
            }
            JOINT RightCollar
            {
                OFFSET -0.038406 0.205938 -0.001496
                CHANNELS 3 Zrotation Xrotation Yrotation
                JOINT RightShoulder
                {
                    OFFSET -0.132388 0.000000 0.000000
                    CHANNELS 3 Zrotation Xrotation Yrotation
                    JOINT RightElbow
                    {
                        OFFSET -0.250301 0.000000 0.000000
                        CHANNELS 3 Zrotation Xrotation Yrotation
                        JOINT RightWrist
                        {
                            OFFSET -0.285291 0.000000 0.000000
                            CHANNELS 3 Zrotation Xrotation Yrotation
                            End Site
                            {
                                OFFSET -0.000000 -0.143776 0.000000
                            }
                        }
                    }
                }
            }
        }
    }
    JOINT LeftHip
    {
        OFFSET 0.095851 0.000000 0.000000
        CHANNELS 3 Zrotation Xrotation Yrotation
        JOINT LeftKnee
        {
            OFFSET -0.000000 -0.406444 0.000000
            CHANNELS 3 Zrotation Xrotation Yrotation
            JOINT LeftAnkle
            {
                OFFSET -0.000000 -0.408443 0.000000
                CHANNELS 3 Zrotation Xrotation Yrotation
                JOINT LeftToe
                {
                    OFFSET -0.000000 -0.062303 0.143776
                    CHANNELS 3 Zrotation Xrotation Yrotation
                    End Site
                    {
                        OFFSET -0.000000 0.000000 0.038340
                    }
                }
            }
        }
    }
    JOINT RightHip
    {
        OFFSET -0.095851 0.000000 0.000000
        CHANNELS 3 Zrotation Xrotation Yrotation
        JOINT RightKnee
        {
            OFFSET -0.000000 -0.406444 0.000000
            CHANNELS 3 Zrotation Xrotation Yrotation
            JOINT RightAnkle
            {
                OFFSET -0.000000 -0.408443 0.000000
                CHANNELS 3 Zrotation Xrotation Yrotation
                JOINT RightToe
                {
                    OFFSET -0.000000 -0.062303 0.143776
                    CHANNELS 3 Zrotation Xrotation Yrotation
                    End Site
                    {
                        OFFSET -0.000000 0.000000 0.038340
                    }
                }
            }
        }
    }
}
MOTION
Frames:    6
Frame Time:    0.016667
0.304650    0.758600    0.601724    -4.925197    13.009238    -170.082870    3.203184    7.896668    2.301281    -14.371999    11.131364    2.238645    7.241529    35.767670    -7.261903    -4.160406    3.852515    -3.581898    5.601867    -3.793816    -4.044827    -33.638042    11.734120    -5.850434    13.540018    -26.239010    -84.325691    117.323097    -10.595918    17.258663    -12.796548    -9.148021    11.680207    17.256516    2.393538    7.805350    -27.489079    -35.346367    61.946163    -107.442917    -0.345951    -20.488831    30.286369    1.037316    2.088355    -16.141275    39.254326    18.529652    -14.308681    -23.594099    8.263508    0.000000    0.000000    0.000000    -22.388470    -15.728565    -0.019591    29.335693    60.506546    -18.740629    5.459970    -36.023808    -16.361427    0.000000    0.000000    0.000000    
0.313155    0.765106    0.598505    -4.569758    12.994917    -166.998642    2.598775    7.496636    1.078040    -12.962201    11.344304    1.701932    7.310126    36.540077    -6.995133    -5.165367    3.456707    -3.078948    6.522478    -5.475390    -5.571799    -31.490446    12.173621    -7.891294    14.667333    -26.920874    -80.605896    117.034424    -12.008875    18.124340    -11.333727    -8.460213    10.539765    19.560049    1.926662    4.568479    -25.427099    -34.719814    70.335892    -108.449059    -0.957266    -18.525509    30.805109    0.304833    1.608057    -13.516583    37.347343    15.185865    -14.443734    -21.820103    8.428168    0.000000    0.000000    0.000000    -21.374495    -13.289723    -1.656331    28.425617    58.675987    -18.680902    5.059676    -35.897762    -16.969854    0.000000    0.000000    0.000000    
0.321821    0.770932    0.595161    -4.212760    12.933077    -163.714447    1.850268    7.189568    -0.313192    -11.389851    11.316631    1.062406    7.262163    37.413647    -6.512291    -6.200334    3.143757    -2.396446    7.291034    -7.465161    -7.216512    -29.275311    11.806455    -9.626315    15.253429    -26.430464    -77.173325    116.782890    -13.473869    18.178617    -9.840784    -6.987836    9.389347    21.807743    1.577528    1.650381    -24.439201    -34.394566    77.234535    -109.501160    -1.766876    -16.719280    31.402430    -0.628822    0.948884    -11.550011    35.108414    12.944518    -14.167495    -19.549881    8.314294    0.000000    0.000000    0.000000    -20.253363    -10.969775    -3.455576    27.593380    56.893761    -18.589499    4.632430    -35.859585    -17.744329    0.000000    0.000000    0.000000    
0.330324    0.776196    0.591020    -3.802293    12.966838    -160.358551    1.131768    6.754050    -1.655319    -9.860729    11.726212    0.484749    7.188285    38.139751    -5.930161    -6.911314    2.797067    -1.690829    8.304235    -9.058243    -8.607787    -26.993116    11.692269    -12.166798    16.319744    -26.315994    -73.143051    116.872101    -13.590689    18.146595    -8.748329    -6.035793    8.127319    24.794546    1.101837    -1.601460    -23.429850    -33.256226    83.544006    -110.425362    -3.136222    -14.259426    32.065086    -1.830838    0.339935    -9.402374    33.363476    10.394588    -14.903918    -17.078241    8.152710    0.000000    0.000000    0.000000    -19.020041    -8.713143    -5.003919    27.500669    55.039043    -19.246401    4.208458    -35.663155    -18.553200    0.000000    0.000000    0.000000    
0.338826    0.780566    0.587817    -3.366650    12.782012    -156.913055    0.126107    6.562913    -2.992340    -7.759046    11.485746    -0.210489    6.830957    39.140110    -5.311019    -7.687497    2.563497    -1.053041    9.164338    -10.227392    -10.125079    -24.780149    11.227855    -14.776147    17.153719    -25.856297    -68.975288    116.917587    -13.818133    18.022781    -7.783237    -4.954387    7.050610    28.056704    2.258188    -5.134460    -23.932602    -33.700249    87.828079    -111.877258    -4.079630    -12.815081    32.646317    -3.479832    -0.304693    -7.647328    31.553822    8.981349    -16.179508    -14.315076    7.615232    0.000000    0.000000    0.000000    -17.785521    -6.960400    -6.840682    27.309669    53.421803    -20.190840    4.166925    -35.432007    -18.835573    0.000000    0.000000    0.000000    
0.346992    0.783307    0.583490    -2.880823    13.011479    -153.363159    -0.761209    6.633596    -4.383502    -5.590274    11.471101    -0.907442    6.805740    39.862938    -4.799720    -8.844557    2.458461    -0.323972    10.035170    -11.478250    -11.744034    -22.583557    11.821764    -17.385704    19.019901    -26.540852    -63.899853    117.437851    -13.787657    18.721872    -7.160653    -3.252364    5.195723    31.030006    2.162112    -7.333470    -22.645901    -32.347973    92.275223    -113.603554    -5.339857    -11.055249    33.491848    -5.061241    -0.987259    -6.063199    30.080132    6.862000    -17.823164    -11.903448    7.167490    0.000000    0.000000    0.000000    -16.258724    -5.008005    -8.811504    27.087378    52.065830    -20.857149    3.998245    -35.480953    -19.380806    0.000000    0.000000    0.000000    
